<svg width="24" height="24" viewBox="0 0 24 24" fill="none" xmlns="http://www.w3.org/2000/svg">
<path d="M12 17.0001C11.586 17.0001 11.25 16.6641 11.25 16.2501V0.75C11.25 0.335999 11.586 0 12 0C12.414 0 12.75 0.335999 12.75 0.75V16.2501C12.75 16.6641 12.414 17.0001 12 17.0001Z" fill="#C4C4C4"/>
<path d="M12 17.0001C11.8079 17.0001 11.616 16.927 11.4699 16.78L7.46997 12.78C7.177 12.4871 7.177 12.0121 7.46997 11.7189C7.76294 11.426 8.23792 11.426 8.53107 11.7189L12.0009 15.189L15.4709 11.7189C15.7639 11.426 16.2391 11.426 16.532 11.7189C16.825 12.0121 16.825 12.4871 16.532 12.78L12.5319 16.78C12.384 16.927 12.1921 17.0001 12 17.0001Z" fill="#C4C4C4"/>
<path d="M21.2499 24H2.75006C1.23303 24 0 22.767 0 21.2499V16.7499C0 16.3359 0.335999 15.9999 0.75 15.9999C1.164 15.9999 1.5 16.3359 1.5 16.7499V21.2499C1.5 21.939 2.06104 22.5 2.75006 22.5H21.2499C21.939 22.5 22.5 21.939 22.5 21.2499V16.7499C22.5 16.3359 22.836 15.9999 23.25 15.9999C23.664 15.9999 24 16.3359 24 16.7499V21.2499C24 22.767 22.767 24 21.2499 24Z" fill="#C4C4C4"/>
</svg>
