<svg width="25" height="22" viewBox="0 0 25 22" fill="none" xmlns="http://www.w3.org/2000/svg">
<path d="M2.771 9.84581L3.46254 10.9468L3.47786 10.9712V11L3.47786 14.2221C3.47936 15.5409 4.54804 16.6096 5.86686 16.6111H7.28897C7.42571 16.6111 7.55541 16.6725 7.64199 16.7786C7.72849 16.8845 7.76269 17.0237 7.73543 17.1576L7.73547 17.1574L7.63741 17.1378L7.73539 17.1578L2.771 9.84581ZM2.771 9.84581L3.47682 4.99216L3.47785 4.98506L3.47786 4.97788C3.47936 3.66143 4.54421 2.59422 5.85977 2.5889L10.2082 3.2101L10.2152 3.2111H10.2223H13.1678L20.8 3.2111C20.8 3.2111 20.8 3.2111 20.8001 3.2111C21.4779 3.21189 22.0773 3.33388 22.5044 3.61346C22.9251 3.88881 23.1882 4.32287 23.189 4.97788V14.2221C23.1875 15.5409 22.1188 16.6096 20.8 16.6111H13.3334C13.2594 16.6111 13.1866 16.6291 13.1212 16.6636L2.771 9.84581ZM20.8002 2.38888H20.8001H13.1678H9.5531L5.88574 1.67959L5.87628 1.67776L5.86664 1.67777C4.045 1.67974 2.56872 3.15603 2.56675 4.97766V4.97777V9.8606L2.56249 9.88986L2.56675 9.89664L2.56675 14.2222L2.56675 14.2223C2.56872 16.044 4.045 17.5202 5.86664 17.5222H5.86675H6.73314L6.13136 20.5314C6.09688 20.7038 6.16475 20.8804 6.30527 20.9856C6.4459 21.0909 6.63456 21.1057 6.79004 21.0239C6.79005 21.0239 6.79006 21.0239 6.79007 21.0239L13.446 17.5222H20.8001H20.8002C22.6218 17.5202 24.0981 16.044 24.1001 14.2223V14.2222V4.97777V4.97766C24.0991 4.06302 23.7257 3.41001 23.1188 2.98941C22.517 2.57241 21.6947 2.38985 20.8002 2.38888ZM7.2124 19.7736L7.09842 19.8336L7.07317 19.9599L7.18715 19.8999L7.2124 19.7736Z" fill="#C4C4C4" stroke="#C4C4C4" stroke-width="0.2"/>
<rect width="12" height="10" fill="#E5E5E5"/>
<path d="M8.59292 0.773927C8.10977 0.274862 7.44683 0 6.72606 0C6.18731 0 5.69391 0.162218 5.25954 0.482111C5.04036 0.643583 4.84177 0.841133 4.66667 1.07171C4.49164 0.841201 4.29297 0.643583 4.07372 0.482111C3.63942 0.162218 3.14603 0 2.60727 0C1.88651 0 1.22349 0.274862 0.740346 0.773927C0.26297 1.26716 0 1.94099 0 2.67138C0 3.42313 0.294159 4.11127 0.9257 4.83704C1.49066 5.48625 2.30264 6.1453 3.24294 6.90844C3.56402 7.16906 3.92796 7.46447 4.30586 7.77915C4.40569 7.86242 4.53379 7.90827 4.66667 7.90827C4.79947 7.90827 4.92764 7.86242 5.02733 7.77928C5.40523 7.46454 5.76939 7.169 6.09061 6.90824C7.03076 6.14523 7.84274 5.48625 8.4077 4.83698C9.03925 4.11127 9.33333 3.42313 9.33333 2.67131C9.33333 1.94099 9.07036 1.26716 8.59292 0.773927Z" fill="#C4C4C4"/>
</svg>
