<svg width="24" height="24" viewBox="0 0 24 24" fill="none" xmlns="http://www.w3.org/2000/svg">
<path d="M12 22.6648C11.6583 22.6648 11.3289 22.541 11.0722 22.3161C10.1026 21.4684 9.16789 20.6717 8.34318 19.9689L8.33897 19.9653C5.92107 17.9048 3.83312 16.1254 2.38037 14.3725C0.756407 12.4129 0 10.5549 0 8.52522C0 6.55318 0.676207 4.73385 1.90393 3.40212C3.14629 2.05466 4.851 1.31253 6.70458 1.31253C8.08995 1.31253 9.35868 1.75052 10.4754 2.61422C11.039 3.0502 11.5499 3.58376 12 4.20614C12.4502 3.58376 12.9609 3.0502 13.5247 2.61422C14.6414 1.75052 15.9102 1.31253 17.2956 1.31253C19.1489 1.31253 20.8538 2.05466 22.0962 3.40212C23.3239 4.73385 24 6.55318 24 8.52522C24 10.5549 23.2437 12.4129 21.6198 14.3723C20.167 16.1254 18.0792 17.9046 15.6617 19.9649C14.8355 20.6687 13.8993 21.4667 12.9276 22.3165C12.6711 22.541 12.3415 22.6648 12 22.6648ZM6.70458 2.71841C5.24834 2.71841 3.91058 3.29959 2.93737 4.355C1.9497 5.42635 1.4057 6.9073 1.4057 8.52522C1.4057 10.2323 2.04016 11.759 3.4627 13.4755C4.83764 15.1346 6.88274 16.8774 9.25065 18.8954L9.25505 18.899C10.0829 19.6045 11.0213 20.4043 11.998 21.2583C12.9805 20.4027 13.9204 19.6016 14.7498 18.895C17.1176 16.877 19.1625 15.1346 20.5374 13.4755C21.9598 11.759 22.5943 10.2323 22.5943 8.52522C22.5943 6.9073 22.0502 5.42635 21.0626 4.355C20.0896 3.29959 18.7516 2.71841 17.2956 2.71841C16.2288 2.71841 15.2494 3.05752 14.3846 3.72622C13.6139 4.32241 13.077 5.07607 12.7622 5.60341C12.6004 5.87459 12.3155 6.03646 12 6.03646C11.6845 6.03646 11.3996 5.87459 11.2377 5.60341C10.9231 5.07607 10.3863 4.32241 9.6154 3.72622C8.75059 3.05752 7.77116 2.71841 6.70458 2.71841Z" fill="#C4C4C4"/>
</svg>
