<svg width="28" height="28" viewBox="0 0 28 28" fill="none" xmlns="http://www.w3.org/2000/svg">
<g clip-path="url(#clip0)">
<path d="M13.1214 28H14.8787C16.2999 28 17.4563 26.8437 17.4563 25.4224V24.8279C18.0605 24.6349 18.6476 24.3912 19.2116 24.0993L19.6329 24.5206C20.6533 25.5423 22.2879 25.5123 23.2787 24.5202L24.5207 23.2783C25.5132 22.2869 25.5417 20.6528 24.5203 19.6325L24.0994 19.2116C24.3912 18.6476 24.6349 18.0606 24.828 17.4563H25.4224C26.8436 17.4563 28 16.2999 28 14.8787V13.1213C28 11.7001 26.8436 10.5437 25.4224 10.5437H24.8279C24.6348 9.93945 24.3912 9.35244 24.0993 8.78845L24.5206 8.36719C25.5414 7.34748 25.5132 5.71331 24.5203 4.72145L23.2782 3.47938C22.2851 2.48495 20.6509 2.46012 19.6325 3.47971L19.2116 3.90064C18.6476 3.60883 18.0605 3.36514 17.4563 3.17204V2.57759C17.4563 1.15631 16.2999 0 14.8786 0H13.1213C11.7001 0 10.5437 1.15631 10.5437 2.57759V3.17209C9.93951 3.36514 9.35244 3.60883 8.78844 3.9007L8.36713 3.47938C7.34672 2.45771 5.71217 2.48768 4.72139 3.47977L3.47938 4.72172C2.48686 5.71315 2.45831 7.34716 3.47971 8.36746L3.9007 8.78845C3.60883 9.35244 3.36519 9.9394 3.17209 10.5437H2.57764C1.15637 10.5437 0 11.7001 0 13.1213V14.8787C0 16.2999 1.15637 17.4563 2.57764 17.4563H3.17209C3.36519 18.0605 3.60883 18.6476 3.9007 19.2116L3.47938 19.6329C2.45859 20.6526 2.48675 22.2867 3.47971 23.2786L4.72183 24.5207C5.7149 25.5151 7.34907 25.5399 8.36752 24.5203L8.78844 24.0994C9.35244 24.3912 9.93951 24.6349 10.5437 24.828V25.4225C10.5437 26.8437 11.7001 28 13.1214 28ZM18.9374 22.3765C18.1538 22.8399 17.3106 23.1899 16.431 23.4169C16.0687 23.5104 15.8156 23.8371 15.8156 24.2112V25.4224C15.8156 25.939 15.3952 26.3594 14.8786 26.3594H13.1213C12.6047 26.3594 12.1843 25.939 12.1843 25.4224V24.2112C12.1843 23.8371 11.9312 23.5104 11.569 23.4169C10.6894 23.1899 9.8461 22.8399 9.06259 22.3765C8.74021 22.1858 8.32978 22.2377 8.06493 22.5025L7.20699 23.3605C6.83709 23.7309 6.24307 23.7223 5.88224 23.3609L4.63936 22.1181C4.27941 21.7586 4.26738 21.1644 4.63903 20.7933L5.49735 19.935C5.76215 19.6702 5.81399 19.2597 5.62341 18.9374C5.16004 18.1539 4.81004 17.3106 4.58303 16.431C4.48952 16.0687 4.16281 15.8157 3.78875 15.8157H2.57759C2.06095 15.8157 1.64057 15.3954 1.64057 14.8787V13.1214C1.64057 12.6048 2.06095 12.1844 2.57759 12.1844H3.78875C4.16287 12.1844 4.48952 11.9313 4.58303 11.5691C4.81004 10.6895 5.16009 9.84621 5.62341 9.06276C5.81399 8.74043 5.76215 8.32995 5.49735 8.06515L4.63936 7.20716C4.26847 6.8367 4.27815 6.2428 4.63903 5.88235L5.88181 4.63958C6.24203 4.27886 6.83616 4.2683 7.20661 4.63925L8.06487 5.49757C8.32967 5.76242 8.74026 5.81427 9.06254 5.62362C9.84605 5.16026 10.6893 4.8102 11.5689 4.5832C11.9312 4.48973 12.1843 4.16303 12.1843 3.78891V2.57759C12.1843 2.06095 12.6046 1.64062 13.1213 1.64062H14.8786C15.3952 1.64062 15.8156 2.06095 15.8156 2.57759V3.7888C15.8156 4.16292 16.0687 4.48962 16.4309 4.58309C17.3105 4.81009 18.1538 5.16015 18.9373 5.62352C19.2597 5.8141 19.6702 5.76226 19.935 5.49746L20.7929 4.63947C21.1628 4.26912 21.7569 4.27771 22.1176 4.63909L23.3605 5.88191C23.7205 6.24143 23.7325 6.8355 23.3609 7.20672L22.5025 8.06504C22.2377 8.32984 22.1859 8.74032 22.3765 9.06265C22.8399 9.8461 23.1899 10.6894 23.4169 11.569C23.5104 11.9313 23.8371 12.1843 24.2111 12.1843H25.4224C25.939 12.1844 26.3594 12.6047 26.3594 13.1213V14.8787C26.3594 15.3953 25.939 15.8156 25.4224 15.8156H24.2112C23.8371 15.8156 23.5104 16.0687 23.4169 16.4309C23.1899 17.3106 22.8399 18.1538 22.3765 18.9373C22.186 19.2596 22.2378 19.6701 22.5026 19.9349L23.3606 20.7929C23.7315 21.1634 23.7218 21.7573 23.3609 22.1177L22.1181 23.3605C21.7579 23.7212 21.1638 23.7318 20.7933 23.3608L19.9351 22.5025C19.7399 22.3074 19.334 22.1419 18.9374 22.3765Z" fill="#C4C4C4"/>
<path d="M14.0001 20.0921C17.3594 20.0921 20.0923 17.3592 20.0923 14C20.0923 10.6407 17.3594 7.90778 14.0001 7.90778C10.6408 7.90778 7.90791 10.6407 7.90791 14C7.90791 17.3592 10.6408 20.0921 14.0001 20.0921ZM14.0001 9.5484C16.4547 9.5484 18.4517 11.5454 18.4517 14C18.4517 16.4546 16.4547 18.4515 14.0001 18.4515C11.5455 18.4515 9.54854 16.4546 9.54854 14C9.54854 11.5454 11.5454 9.5484 14.0001 9.5484Z" fill="#C4C4C4"/>
</g>
<defs>
<clipPath id="clip0">
<rect width="28" height="28" transform="matrix(-1 0 0 1 28 0)" fill="white"/>
</clipPath>
</defs>
</svg>
